<?xml version="1.0" standalone="no"?>
<!DOCTYPE svg PUBLIC "-//W3C//DTD SVG 20010904//EN"
 "http://www.w3.org/TR/2001/REC-SVG-20010904/DTD/svg10.dtd">
<svg version="1.0" xmlns="http://www.w3.org/2000/svg"
 width="16.000000pt" height="16.000000pt" viewBox="0 0 16.000000 16.000000"
 preserveAspectRatio="xMidYMid meet">
<metadata>
Created by potrace 1.11, written by Peter Selinger 2001-2013
</metadata>
<g transform="translate(0.000000,16.000000) scale(0.005926,-0.005926)"
fill="#000000" stroke="none">
<path d="M563 2645 c-164 -36 -305 -174 -342 -336 -14 -60 -14 -1858 0 -1918
26 -115 121 -238 226 -294 104 -55 124 -57 903 -57 779 0 799 2 903 57 105 56
200 179 226 294 14 60 14 1858 0 1918 -26 115 -121 238 -226 294 -104 56 -123
57 -908 56 -567 0 -733 -3 -782 -14z m1619 -107 c115 -54 197 -162 217 -288
15 -89 15 -1711 0 -1800 -20 -126 -102 -234 -217 -288 l-57 -27 -775 0 -775 0
-57 27 c-115 54 -197 162 -217 288 -15 88 -15 1711 -1 1799 25 149 130 269
269 307 35 10 224 12 801 11 l755 -2 57 -27z"/>
<path d="M830 2036 l0 -186 -130 0 -130 0 0 -780 0 -780 780 0 780 0 0 780 0
780 -191 2 -191 3 -19 54 c-50 143 -165 241 -334 287 -44 11 -128 17 -312 21
l-253 6 0 -187z m518 39 c72 -17 125 -42 172 -82 36 -30 90 -108 90 -130 0
-10 -64 -13 -325 -13 l-325 0 0 120 0 120 163 0 c108 0 183 -5 225 -15z m-518
-935 l0 -660 223 0 c363 0 497 20 635 97 115 63 197 163 243 293 19 53 23 86
23 185 0 104 -4 130 -26 193 -35 96 -77 160 -153 230 l-63 58 19 57 c11 33 21
91 22 133 l2 74 163 0 162 0 0 -735 0 -735 -730 0 -730 0 0 735 0 735 105 0
105 0 0 -660z m800 607 c0 -43 -24 -157 -33 -157 -1 0 -27 7 -57 16 -42 13
-117 18 -317 21 l-263 5 0 84 0 84 335 0 335 0 0 -53z m-167 -253 c20 -4 37
-10 37 -13 0 -4 -18 -17 -40 -30 -65 -36 -160 -51 -337 -51 l-163 0 0 50 0 50
233 0 c127 0 249 -3 270 -6z m277 -164 c17 -21 43 -65 58 -97 25 -53 27 -68
27 -173 0 -97 -4 -124 -24 -173 -33 -83 -115 -168 -205 -212 -105 -52 -193
-65 -432 -65 l-204 0 0 334 0 334 218 4 c189 4 224 7 274 26 61 22 130 65 162
101 l19 21 38 -31 c21 -16 52 -47 69 -69z"/>
</g>
</svg>
