<?xml version="1.0" encoding="UTF-8"?>
<svg id="Layer_1" data-name="Layer 1" xmlns="http://www.w3.org/2000/svg" viewBox="0 0 333.41 446.45">
  <defs>
    <style>
      .cls-1 {
        stroke-width: 0px;
      }
    </style>
  </defs>
  <g id="Giek2Z.tif">
    <g>
      <path class="cls-1" d="m333.41,172.05c-.92,28.62-12.55,62.19-31.4,92.17-34.83,55.36-71.55,109.55-108.67,163.42-17.32,25.14-34.47,24.78-53.13.77-46.8-60.23-90.46-122.48-123.18-191.86C-28.23,140.58,22.97,48.27,97.07,14.95c110.15-49.54,235.18,29.47,236.34,157.1Zm-166.87,245.13c41.01-52.46,80.17-103.98,109.24-161.88,12.92-25.74,26.36-53.98,28.43-81.92,6.76-90.99-76.09-160.34-166.11-142.27C54.38,47.92,7.74,137.54,35.57,207.33c30.82,77.32,79.23,143.44,130.98,209.85Z"/>
      <path class="cls-1" d="m235.77,166.96c.19,38.35-31.42,70.42-69.33,70.32-36.87-.09-69.3-32.17-69.87-69.11-.56-36.86,32.84-70.4,70.04-70.33,37.39.07,68.97,31.63,69.16,69.11Zm-27.93.79c.07-23.33-18.17-41.98-41.16-42.06-22.45-.09-41.92,19.21-42.08,41.7-.17,22.33,19.29,41.93,41.72,42.05,23,.12,41.45-18.4,41.52-41.69Z"/>
    </g>
  </g>
</svg>