<?xml version="1.0" encoding="UTF-8"?>
<svg id="Layer_1" data-name="Layer 1" xmlns="http://www.w3.org/2000/svg" viewBox="0 0 444.35 444.89">
  <defs>
    <style>
      .cls-1 {
        stroke-width: 0px;
      }
    </style>
  </defs>
  <g id="ezO5TD.tif">
    <path class="cls-1" d="m161.49,187.34c22.04,39.13,52.75,70.03,95.81,96.33,8.35-9.92,16.88-20.04,25.4-30.18,14.83-17.65,27.61-21.08,49.04-12.18,29.44,12.22,58.82,24.62,88,37.47,21.36,9.41,28.05,24.06,23.04,47.28-6.05,28.01-12,56.03-17.93,84.07-5.27,24.92-17.1,35.44-42.35,34.72-77.71-2.22-149.25-24.12-213.19-69.06C90.19,320.2,36.21,246.46,12.77,152.27,5.45,122.86,3.07,92.06.25,61.72-1.78,39.76,8.44,26.73,30.19,21.5,62.07,13.83,94.18,7.05,126.33.59c15.18-3.05,31.36,5.9,38.35,21.58,14.12,31.65,27.56,63.61,40.75,95.66,6.3,15.31,2.82,29.26-9.55,40.34-11.02,9.87-22.55,19.17-34.39,29.17Zm217.17,229.95c12.62,3.69,18.47-3.81,21.05-18.41,4.51-25.46,10.33-50.7,16.05-75.92,2.17-9.55.4-15.41-9.55-19.44-28.68-11.62-57.04-24.04-85.39-36.45-7.01-3.07-11.95-2.36-16.68,4.02-7.17,9.67-14.85,18.97-22.62,28.17-11.82,13.98-26.18,16.11-41.95,6.62-42.1-25.31-75.7-59.11-100.93-101.24-9.1-15.2-7.53-27.81,5.67-39.75,9.26-8.38,19.3-15.9,29.13-23.63,5.73-4.5,8.01-8.96,4.62-16.6-12.93-29.14-25.28-58.54-37.64-87.93-3.24-7.71-7.81-10-16.3-7.99-27.41,6.48-54.91,12.71-82.6,17.84-11.25,2.08-14.29,7.12-13.85,17.85,3.56,86.83,32.5,163.56,90.28,228.87,68.51,77.44,154.71,118.2,260.71,124.01Z"/>
  </g>
</svg>