<?xml version="1.0" encoding="UTF-8"?>
<svg id="Layer_1" data-name="Layer 1" xmlns="http://www.w3.org/2000/svg" viewBox="0 0 466.32 349.09">
  <defs>
    <style>
      .cls-1 {
        stroke-width: 0px;
      }
    </style>
  </defs>
  <g id="EHDS5p.tif">
    <path class="cls-1" d="m232.84,349.07c-55.83,0-111.67.07-167.5-.02-40-.06-64.85-24.07-65.05-63.95-.37-73.7-.37-147.41,0-221.11C.48,24.1,25.33.08,65.34.05c112.15-.07,224.31-.07,336.46,0,40.39.02,64.29,23.63,64.39,63.95.18,73.7.18,147.41,0,221.11-.1,40.31-24,63.88-64.39,63.94-56.32.08-112.64.02-168.96.02Zm1.44-320.05c-56.8,0-113.6.04-170.4-.02-14.75-.02-26.97,4.16-32.14,19.46-7.1,21.01-2.9,45.54,8.93,54.17,53.27,38.83,106.55,77.65,159.83,116.47,25.47,18.55,40.12,18.71,65.85.06,49.06-35.56,97.37-72.19,147.29-106.49,17.96-12.34,25.87-25.12,24.03-47.11-2.27-27.09-9.95-36.49-37.36-36.52-55.34-.06-110.68-.02-166.03-.02ZM29.45,130.73c0,55.71-.68,107.89.34,160.05.4,20.08,12.6,29.22,34.11,29.24,113.06.11,226.13.11,339.19,0,23.59-.02,33.87-10.2,34-33.48.21-37.32.06-74.63.07-111.95,0-13.35,0-26.69,0-42.83-7.45,5.13-12.53,8.48-17.45,12.05-46.63,33.9-93.36,67.68-139.79,101.87-16.31,12.01-34.24,20.16-54.09,15.64-14.59-3.33-29.43-9.83-41.67-18.43-51.07-35.92-101.21-73.17-154.72-112.15Z"/>
  </g>
</svg>